PathFileType	4	(X/Y/Z)	D:\TRACE\v60_Jaco2_6-2-23\v60_baseline_4-v60.trc
DataRate	CameraRate	NumFrames	NumMarkers	Units	OrigDataRate	OrigDataStartFrame	OrigNumFrames
100.00	100.00	      27	9	mm	100.00	3251	      6500
Frame#	Time	front left toe			Front right toe			aft left toe			aft right toe			Arm			FL body			FR body			AL Body			AR Body			
		X1	Y1	Z1	X2	Y2	Z2	X3	Y3	Z3	X4	Y4	Z4	X5	Y5	Z5	X6	Y6	Z6	X7	Y7	Z7	X8	Y8	Z8	X9	Y9	Z9	

3251	32.500	-123.74257	16.78541	-142.97762	250.45998	32.94292	-194.59634	-101.96490	33.93967	448.05292	280.88492	16.88890	465.10294	-44.37871	1207.55396	-294.40933	-23.56676	576.08990	-299.01895	136.27731	575.12811	-307.82092	25.28843	559.40106	645.52203	181.34808	552.63257	637.56976	
3252	32.510	-123.56433	16.66333	-142.99863	250.73701	26.47727	-194.82004	-102.18239	27.74072	447.49921	280.89783	16.85617	465.08890	-43.91873	1207.86670	-295.57013	-24.02172	576.24323	-300.20706	136.08815	575.18372	-308.88062	24.94740	559.53156	644.41119	181.48050	552.57806	636.91693	
3253	32.520	-123.50748	16.56373	-143.07330	250.85640	20.10828	-194.96832	-102.44493	20.95995	446.55209	280.90335	16.87983	465.05627	-44.57875	1207.96875	-296.39804	-24.16534	576.57721	-301.09964	136.06084	575.29144	-309.43848	25.05965	559.43506	643.82666	181.16432	552.10620	636.00073	
3254	32.530	-123.51637	16.54934	-143.06372	251.34317	19.33249	-197.17043	-102.98901	18.82752	444.37769	280.93039	16.85288	465.05914	-44.41717	1208.10120	-296.74133	-24.26191	576.49500	-301.55270	135.15910	575.41663	-309.92508	25.17742	559.05731	643.16290	181.18353	552.41852	635.23444	
3255	32.540	-123.46070	16.61916	-143.21057	251.60065	17.42776	-197.92143	-104.02480	16.68294	444.55411	280.84305	16.98874	465.05743	-45.15987	1208.39331	-297.78412	-25.15186	577.20197	-302.29364	134.79016	576.02130	-310.93417	24.79907	559.92053	642.13531	181.75581	553.07111	634.54651	
3256	32.550	-123.40759	17.11926	-143.24643	251.48225	17.22776	-197.32326	-103.91454	17.12279	445.47620	280.66052	17.55652	464.93710	-46.65537	1208.95740	-297.97882	-25.31672	577.83386	-302.92776	134.91234	576.91003	-311.69864	25.24107	561.07660	641.88959	181.51445	554.33344	633.82111	
3257	32.560	-123.46084	20.26192	-143.67131	250.90134	17.08914	-196.88943	-103.16859	16.05876	445.65378	280.64670	20.08971	464.47360	-47.57434	1210.07166	-298.71078	-25.85905	578.65118	-303.70947	134.07332	577.97894	-312.00488	25.38771	562.45746	641.39020	181.79384	555.46417	633.19751	
3258	32.570	-119.25513	23.50959	-141.27896	250.49486	17.37551	-197.62897	-103.77070	16.12505	445.31284	277.64395	23.15144	467.40173	-47.09714	1211.67651	-299.90976	-26.56943	580.07166	-304.28781	133.35617	579.13013	-312.82861	25.25326	562.82068	640.31860	182.12491	555.83362	632.10706	
3259	32.580	-116.16509	27.90440	-137.97011	250.45837	17.24286	-197.30592	-103.71406	16.06557	445.21057	274.20322	27.44719	470.08469	-49.41848	1212.04895	-300.28467	-27.01303	580.65192	-304.95465	133.20058	579.73254	-313.67023	25.58784	562.89142	639.71710	181.79761	555.96527	631.48663	
3260	32.590	-113.90444	36.59399	-137.11195	250.65857	17.17556	-197.69734	-103.72179	16.12601	445.11600	271.01849	35.91451	470.61823	-49.55710	1212.63660	-300.96927	-26.85520	580.52417	-305.78568	132.95348	579.91565	-314.61285	25.33533	563.25739	638.66138	181.81996	556.45551	630.51794	
3261	32.600	-113.75300	45.71975	-137.18648	250.78741	17.01377	-197.59569	-103.66550	16.14250	445.18411	269.89795	45.95646	469.40799	-50.27241	1212.56165	-300.98044	-26.93262	580.36700	-306.55313	133.26782	580.16913	-315.54056	25.21098	563.25043	638.13751	181.77432	556.97961	629.92615	
3262	32.610	-115.11658	57.08270	-139.41891	250.93356	16.99418	-197.36208	-103.75861	16.14637	445.35324	270.66278	56.78886	467.05988	-50.56950	1212.05212	-301.42554	-26.60540	580.04437	-307.42447	133.01726	579.81586	-315.72665	24.92650	563.22858	637.60223	181.07242	556.37341	629.22430	
3263	32.620	-116.10788	67.96930	-142.37724	251.03781	16.92434	-197.36848	-103.81809	15.99638	445.26602	273.28241	68.28970	464.37454	-51.11248	1211.67419	-302.61917	-26.39602	579.99524	-307.62805	133.00249	579.72791	-316.53436	24.35989	562.83807	636.72961	180.85356	556.28595	628.72388	
3264	32.630	-118.31030	79.62016	-145.98750	251.16005	16.81161	-197.38548	-104.02701	15.73881	445.22403	275.51926	79.50179	461.11185	-51.42699	1210.87109	-303.80261	-26.41442	579.81378	-308.65472	133.30988	579.57959	-317.08630	23.80624	561.71509	636.24774	180.39420	555.81842	628.40747	
3265	32.640	-119.49981	91.10987	-149.61649	251.41167	16.58337	-197.39780	-104.32886	15.42210	445.11670	276.28238	90.19162	457.81216	-50.71291	1210.46619	-303.90015	-26.25617	579.47491	-309.31039	133.48233	579.32532	-317.62869	23.04782	561.48816	635.29272	179.45683	555.23376	627.79120	
3266	32.650	-120.28047	102.01865	-153.32689	251.49434	16.47944	-197.34262	-104.38327	15.27087	445.00320	276.67557	101.02694	454.70602	-50.99902	1210.10852	-304.85931	-25.87843	578.98328	-309.99860	133.67651	579.07745	-317.92465	22.71823	561.00500	634.91913	178.90398	555.00085	627.16223	
3267	32.660	-120.86826	112.79917	-156.52530	251.47614	16.43156	-197.42383	-104.44263	15.21756	444.95407	275.67279	111.97685	451.71307	-50.85688	1210.28223	-305.19125	-26.52814	578.94812	-310.77390	134.30769	578.97198	-318.98541	22.35820	561.03119	634.32782	178.76601	555.06812	626.74713	
3268	32.670	-120.83833	122.62857	-159.11299	251.51894	16.39380	-197.36925	-104.51304	15.36643	444.90430	274.66223	122.02476	449.25720	-50.34845	1210.61060	-305.35611	-26.20704	578.50977	-311.24249	134.39186	578.62457	-319.48041	22.19711	561.51221	633.36621	178.21716	554.62714	625.76935	
3269	32.680	-121.39144	131.65892	-161.80966	251.49957	16.33183	-197.39505	-104.65493	15.15384	444.61951	273.05215	130.72855	446.75375	-51.13188	1210.49353	-306.51816	-26.15458	578.21710	-311.83966	134.56615	578.42310	-319.91061	21.76809	561.59070	633.12970	178.22733	555.48114	625.40564	
3270	32.690	-122.97643	139.51701	-164.24263	252.75439	16.40462	-197.10335	-104.62395	15.34488	444.74347	273.20947	138.94785	444.44919	-52.06692	1209.48804	-306.85587	-25.73441	577.85315	-312.36145	134.46719	578.19507	-320.38654	21.36173	561.89410	632.50446	177.75516	555.66852	625.17950	
3271	32.700	-124.58516	145.58618	-166.29669	252.72687	16.51678	-197.12161	-104.73588	15.32534	444.70206	273.01266	144.66882	441.63684	-50.64606	1209.52539	-308.41302	-25.52632	577.74292	-312.82437	134.64287	578.01733	-320.85977	20.84301	562.11646	632.00946	177.39824	555.87439	624.92871	
3272	32.710	-126.10390	149.99158	-168.07822	252.61427	16.57574	-197.08435	-104.70611	15.32150	444.71219	273.28967	148.61781	439.12598	-50.89926	1208.95386	-309.78528	-25.70233	577.89105	-313.19684	134.61482	578.00006	-321.35068	20.53890	562.19476	631.53949	177.10722	556.20294	624.56879	
3273	32.720	-127.63074	152.23485	-169.96321	252.64392	16.56949	-197.05807	-104.73985	15.43684	444.65945	274.58420	150.57803	437.34503	-50.49343	1208.79749	-310.81491	-25.90210	578.01233	-313.87204	134.90736	577.95398	-321.60739	20.38676	562.21118	631.12225	176.72926	556.50104	624.14752	
3274	32.730	-128.62486	151.37898	-171.44072	252.64316	16.58022	-197.05539	-104.86817	15.68416	444.46259	274.57877	149.43871	435.44501	-49.56329	1208.90625	-311.03802	-24.80902	577.63318	-313.93100	135.02936	577.99957	-321.89194	19.62741	562.79333	630.62982	176.13701	556.62531	623.85266	
3275	32.740	-128.11989	148.24138	-173.09987	252.63930	16.53409	-197.12053	-104.98072	15.73587	444.29550	275.33630	147.06866	434.32697	-50.69784	1208.67358	-311.28937	-25.17377	577.72949	-314.66574	135.13907	577.93060	-322.42023	19.38374	563.12213	630.27032	176.18036	557.14703	623.46204	
3276	32.750	-128.29001	143.70486	-174.66992	252.60051	16.45981	-197.14095	-105.20861	15.64606	444.29388	274.93268	142.68587	432.55615	-49.78362	1209.54065	-311.81702	-24.90421	577.42902	-315.10803	135.33577	577.83447	-322.88980	19.22428	563.10645	629.65582	175.93965	557.21881	623.13971	
3277	32.760	-127.32712	138.17654	-176.59859	252.56332	16.43671	-197.16138	-105.19783	15.55100	444.26880	274.18393	137.83961	430.81100	-51.49400	1209.01758	-311.82037	-24.80997	577.38342	-315.53989	135.43892	577.78613	-323.24484	18.75922	562.73492	629.44452	175.19994	556.89966	622.48163	
